<svg width="24" height="29" viewBox="0 0 24 29" fill="none" xmlns="http://www.w3.org/2000/svg">
<path d="M7.05333 16.2568C6.92836 16.3907 6.82917 16.5499 6.76148 16.7254C6.69379 16.9009 6.65894 17.0891 6.65894 17.2792C6.65894 17.4692 6.69379 17.6574 6.76148 17.8329C6.82917 18.0084 6.92836 18.1676 7.05333 18.3015L11.0533 22.6213C11.1773 22.7562 11.3248 22.8634 11.4872 22.9365C11.6497 23.0096 11.824 23.0472 12 23.0472C12.176 23.0472 12.3503 23.0096 12.5128 22.9365C12.6752 22.8634 12.8227 22.7562 12.9467 22.6213L16.9467 18.3015C17.1977 18.0304 17.3388 17.6626 17.3388 17.2792C17.3388 16.8957 17.1977 16.5279 16.9467 16.2568C16.6956 15.9857 16.3551 15.8333 16 15.8333C15.6449 15.8333 15.3044 15.9857 15.0533 16.2568L13.3333 18.1287V1.43993C13.3333 1.05804 13.1929 0.691785 12.9428 0.421745C12.6928 0.151706 12.3536 0 12 0C11.6464 0 11.3072 0.151706 11.0572 0.421745C10.8071 0.691785 10.6667 1.05804 10.6667 1.43993V18.1287L8.94667 16.2568C8.82272 16.1218 8.67525 16.0147 8.51277 15.9416C8.35029 15.8685 8.17602 15.8309 8 15.8309C7.82398 15.8309 7.64971 15.8685 7.48723 15.9416C7.32475 16.0147 7.17728 16.1218 7.05333 16.2568ZM20 10.0795H17.3333C16.9797 10.0795 16.6406 10.2312 16.3905 10.5013C16.1405 10.7713 16 11.1375 16 11.5194C16 11.9013 16.1405 12.2676 16.3905 12.5376C16.6406 12.8077 16.9797 12.9594 17.3333 12.9594H20C20.3536 12.9594 20.6928 13.1111 20.9428 13.3811C21.1929 13.6511 21.3333 14.0174 21.3333 14.3993V24.4788C21.3333 24.8607 21.1929 25.2269 20.9428 25.497C20.6928 25.767 20.3536 25.9187 20 25.9187H4C3.64638 25.9187 3.30724 25.767 3.05719 25.497C2.80714 25.2269 2.66667 24.8607 2.66667 24.4788V14.3993C2.66667 14.0174 2.80714 13.6511 3.05719 13.3811C3.30724 13.1111 3.64638 12.9594 4 12.9594H6.66667C7.02029 12.9594 7.35943 12.8077 7.60948 12.5376C7.85952 12.2676 8 11.9013 8 11.5194C8 11.1375 7.85952 10.7713 7.60948 10.5013C7.35943 10.2312 7.02029 10.0795 6.66667 10.0795H4C2.93913 10.0795 1.92172 10.5346 1.17157 11.3447C0.421427 12.1549 0 13.2536 0 14.3993V24.4788C0 25.6245 0.421427 26.7232 1.17157 27.5333C1.92172 28.3435 2.93913 28.7986 4 28.7986H20C21.0609 28.7986 22.0783 28.3435 22.8284 27.5333C23.5786 26.7232 24 25.6245 24 24.4788V14.3993C24 13.2536 23.5786 12.1549 22.8284 11.3447C22.0783 10.5346 21.0609 10.0795 20 10.0795Z" fill="white"/>
</svg>
